<svg xmlns="http://www.w3.org/2000/svg" width="720" height="540" viewBox="0 0 720 540" role="img" aria-label="Professional green land maintenance illustration">
  <defs>
    <linearGradient id="sky" x1="0" y1="0" x2="0" y2="1">
      <stop offset="0" stop-color="#e9f9ec"/>
      <stop offset="1" stop-color="#fffdf0"/>
    </linearGradient>
    <linearGradient id="field" x1="0" y1="0" x2="1" y2="1">
      <stop offset="0" stop-color="#166534"/>
      <stop offset="0.55" stop-color="#4d7c0f"/>
      <stop offset="1" stop-color="#84cc16"/>
    </linearGradient>
    <linearGradient id="panel" x1="0" y1="0" x2="1" y2="1">
      <stop offset="0" stop-color="#0f172a"/>
      <stop offset="1" stop-color="#1d4ed8"/>
    </linearGradient>
    <filter id="softShadow" x="-20%" y="-20%" width="140%" height="140%">
      <feDropShadow dx="0" dy="18" stdDeviation="16" flood-color="#062114" flood-opacity="0.2"/>
    </filter>
  </defs>
  <rect width="720" height="540" rx="28" fill="url(#sky)"/>
  <circle cx="594" cy="78" r="42" fill="#facc15"/>
  <path d="M0 304c105-52 208-54 308-4 129 64 267 50 412-40v280H0Z" fill="#bbf7d0"/>
  <path d="M0 360c136-60 262-59 378 2 119 62 231 58 342-7v185H0Z" fill="url(#field)"/>
  <path d="M0 432c146-34 282-27 408 19 107 39 211 38 312-1v90H0Z" fill="#0b3b23" opacity="0.72"/>
  <path d="M61 458c157-40 316-38 477 5" fill="none" stroke="#dcfce7" stroke-width="8" stroke-linecap="round" opacity="0.58"/>
  <path d="M88 491c151-30 307-28 468 5" fill="none" stroke="#dcfce7" stroke-width="7" stroke-linecap="round" opacity="0.42"/>

  <!-- mower -->
  <g filter="url(#softShadow)">
    <rect x="88" y="254" width="124" height="74" rx="18" fill="#0b3b23"/>
    <path d="M92 254h77l32 42H64Z" fill="#facc15"/>
    <rect x="122" y="286" width="54" height="42" rx="8" fill="#dcfce7" opacity="0.92"/>
    <circle cx="108" cy="338" r="21" fill="#062114"/>
    <circle cx="193" cy="338" r="21" fill="#062114"/>
    <circle cx="108" cy="338" r="9" fill="#64748b"/>
    <circle cx="193" cy="338" r="9" fill="#64748b"/>
    <path d="M195 260c41-32 71-65 90-100" fill="none" stroke="#0b3b23" stroke-width="12" stroke-linecap="round"/>
  </g>

  <!-- PV panels -->
  <g filter="url(#softShadow)">
    <path d="M452 172h104l40 116H410Z" fill="url(#panel)"/>
    <path d="M472 194h68M458 230h98M444 264h124" stroke="#93c5fd" stroke-width="5" opacity="0.55"/>
    <path d="M485 174l-35 114M524 174l-16 114M560 184l24 104" stroke="#bfdbfe" stroke-width="4" opacity="0.55"/>
    <path d="M423 290h185" stroke="#062114" stroke-width="10" stroke-linecap="round"/>
    <path d="M461 304v64M579 304v64" stroke="#062114" stroke-width="8" stroke-linecap="round"/>
  </g>

  <!-- trimmer head and line -->
  <g filter="url(#softShadow)">
    <path d="M297 388l305-210" stroke="#e2e8f0" stroke-width="14" stroke-linecap="round"/>
    <path d="M292 388l118-79" stroke="#94a3b8" stroke-width="6" stroke-linecap="round" opacity="0.75"/>
    <ellipse cx="276" cy="401" rx="62" ry="28" fill="#062114"/>
    <ellipse cx="276" cy="397" rx="43" ry="18" fill="#14532d"/>
    <rect x="234" y="365" width="84" height="36" rx="12" fill="#0b3b23"/>
    <path d="M219 416c-36 6-66 12-90 21" fill="none" stroke="#facc15" stroke-width="5" stroke-linecap="round"/>
    <path d="M217 421c-29 22-59 40-90 55" fill="none" stroke="#facc15" stroke-width="4" stroke-linecap="round" opacity="0.8"/>
  </g>

  <!-- logs -->
  <g transform="translate(591 342)" filter="url(#softShadow)">
    <circle cx="20" cy="54" r="27" fill="#6b4f2a"/>
    <circle cx="70" cy="54" r="27" fill="#6b4f2a"/>
    <circle cx="45" cy="18" r="27" fill="#6b4f2a"/>
    <circle cx="20" cy="54" r="17" fill="#c59a54" opacity="0.9"/>
    <circle cx="70" cy="54" r="17" fill="#c59a54" opacity="0.9"/>
    <circle cx="45" cy="18" r="17" fill="#c59a54" opacity="0.9"/>
    <path d="M8 54h24M58 54h25M33 18h24" stroke="#4b341b" stroke-width="3" stroke-linecap="round" opacity="0.55"/>
  </g>
</svg>
